<mxfile host="app.diagrams.net" modified="2023-03-20T08:28:24.933Z" agent="5.0 (Windows NT 10.0; Win64; x64) AppleWebKit/537.36 (KHTML, like Gecko) Chrome/111.0.0.0 Safari/537.36" etag="ATtf59fQhNZzaf6gPHkI" version="20.8.23" type="github">
  <diagram id="C5RBs43oDa-KdzZeNtuy" name="Page-1">
    <mxGraphModel dx="980" dy="753" grid="1" gridSize="10" guides="1" tooltips="1" connect="1" arrows="1" fold="1" page="1" pageScale="1" pageWidth="827" pageHeight="1169" math="0" shadow="0">
      <root>
        <mxCell id="WIyWlLk6GJQsqaUBKTNV-0" />
        <mxCell id="WIyWlLk6GJQsqaUBKTNV-1" parent="WIyWlLk6GJQsqaUBKTNV-0" />
        <mxCell id="zkfFHV4jXpPFQw0GAbJ--0" value="Book (parser)" style="swimlane;fontStyle=2;align=center;verticalAlign=top;childLayout=stackLayout;horizontal=1;startSize=26;horizontalStack=0;resizeParent=1;resizeLast=0;collapsible=1;marginBottom=0;rounded=0;shadow=0;strokeWidth=1;labelBackgroundColor=none;fillColor=#A8DADC;strokeColor=#457B9D;fontColor=#1D3557;" parent="WIyWlLk6GJQsqaUBKTNV-1" vertex="1">
          <mxGeometry x="430" y="430" width="110" height="220" as="geometry">
            <mxRectangle x="230" y="140" width="160" height="26" as="alternateBounds" />
          </mxGeometry>
        </mxCell>
        <mxCell id="zkfFHV4jXpPFQw0GAbJ--1" value="title" style="text;align=left;verticalAlign=top;spacingLeft=4;spacingRight=4;overflow=hidden;rotatable=0;points=[[0,0.5],[1,0.5]];portConstraint=eastwest;labelBackgroundColor=none;fontColor=#1D3557;" parent="zkfFHV4jXpPFQw0GAbJ--0" vertex="1">
          <mxGeometry y="26" width="110" height="26" as="geometry" />
        </mxCell>
        <mxCell id="zkfFHV4jXpPFQw0GAbJ--2" value="url" style="text;align=left;verticalAlign=top;spacingLeft=4;spacingRight=4;overflow=hidden;rotatable=0;points=[[0,0.5],[1,0.5]];portConstraint=eastwest;rounded=0;shadow=0;html=0;labelBackgroundColor=none;fontColor=#1D3557;" parent="zkfFHV4jXpPFQw0GAbJ--0" vertex="1">
          <mxGeometry y="52" width="110" height="26" as="geometry" />
        </mxCell>
        <mxCell id="zkfFHV4jXpPFQw0GAbJ--3" value="author" style="text;align=left;verticalAlign=top;spacingLeft=4;spacingRight=4;overflow=hidden;rotatable=0;points=[[0,0.5],[1,0.5]];portConstraint=eastwest;rounded=0;shadow=0;html=0;labelBackgroundColor=none;fontColor=#1D3557;" parent="zkfFHV4jXpPFQw0GAbJ--0" vertex="1">
          <mxGeometry y="78" width="110" height="26" as="geometry" />
        </mxCell>
        <mxCell id="MQxrrS3ABcdaOcVpQEeN-0" value="description" style="text;align=left;verticalAlign=top;spacingLeft=4;spacingRight=4;overflow=hidden;rotatable=0;points=[[0,0.5],[1,0.5]];portConstraint=eastwest;rounded=0;shadow=0;html=0;labelBackgroundColor=none;fontColor=#1D3557;" vertex="1" parent="zkfFHV4jXpPFQw0GAbJ--0">
          <mxGeometry y="104" width="110" height="26" as="geometry" />
        </mxCell>
        <mxCell id="MQxrrS3ABcdaOcVpQEeN-1" value="status (availability)" style="text;align=left;verticalAlign=top;spacingLeft=4;spacingRight=4;overflow=hidden;rotatable=0;points=[[0,0.5],[1,0.5]];portConstraint=eastwest;rounded=0;shadow=0;html=0;labelBackgroundColor=none;fontColor=#1D3557;" vertex="1" parent="zkfFHV4jXpPFQw0GAbJ--0">
          <mxGeometry y="130" width="110" height="26" as="geometry" />
        </mxCell>
        <mxCell id="MQxrrS3ABcdaOcVpQEeN-2" value="price" style="text;align=left;verticalAlign=top;spacingLeft=4;spacingRight=4;overflow=hidden;rotatable=0;points=[[0,0.5],[1,0.5]];portConstraint=eastwest;rounded=0;shadow=0;html=0;labelBackgroundColor=none;fontColor=#1D3557;" vertex="1" parent="zkfFHV4jXpPFQw0GAbJ--0">
          <mxGeometry y="156" width="110" height="26" as="geometry" />
        </mxCell>
        <mxCell id="MQxrrS3ABcdaOcVpQEeN-3" value="image" style="text;align=left;verticalAlign=top;spacingLeft=4;spacingRight=4;overflow=hidden;rotatable=0;points=[[0,0.5],[1,0.5]];portConstraint=eastwest;rounded=0;shadow=0;html=0;labelBackgroundColor=none;fontColor=#1D3557;" vertex="1" parent="zkfFHV4jXpPFQw0GAbJ--0">
          <mxGeometry y="182" width="110" height="26" as="geometry" />
        </mxCell>
        <mxCell id="zkfFHV4jXpPFQw0GAbJ--17" value="PageScraper" style="swimlane;fontStyle=0;align=center;verticalAlign=top;childLayout=stackLayout;horizontal=1;startSize=26;horizontalStack=0;resizeParent=1;resizeLast=0;collapsible=1;marginBottom=0;rounded=0;shadow=0;strokeWidth=1;labelBackgroundColor=none;fillColor=#A8DADC;strokeColor=#457B9D;fontColor=#1D3557;" parent="WIyWlLk6GJQsqaUBKTNV-1" vertex="1">
          <mxGeometry x="190" y="410" width="160" height="140" as="geometry">
            <mxRectangle x="550" y="140" width="160" height="26" as="alternateBounds" />
          </mxGeometry>
        </mxCell>
        <mxCell id="zkfFHV4jXpPFQw0GAbJ--19" value="books:&#xa;    locator&#xa;    convert books to Books" style="text;align=left;verticalAlign=top;spacingLeft=4;spacingRight=4;overflow=hidden;rotatable=0;points=[[0,0.5],[1,0.5]];portConstraint=eastwest;rounded=0;shadow=0;html=0;labelBackgroundColor=none;fontColor=#1D3557;" parent="zkfFHV4jXpPFQw0GAbJ--17" vertex="1">
          <mxGeometry y="26" width="160" height="64" as="geometry" />
        </mxCell>
        <mxCell id="zkfFHV4jXpPFQw0GAbJ--23" value="" style="line;html=1;strokeWidth=1;align=left;verticalAlign=middle;spacingTop=-1;spacingLeft=3;spacingRight=3;rotatable=0;labelPosition=right;points=[];portConstraint=eastwest;labelBackgroundColor=none;fillColor=#A8DADC;strokeColor=#457B9D;fontColor=#1D3557;" parent="zkfFHV4jXpPFQw0GAbJ--17" vertex="1">
          <mxGeometry y="90" width="160" height="8" as="geometry" />
        </mxCell>
        <mxCell id="zkfFHV4jXpPFQw0GAbJ--24" value="page_count&#xa;" style="text;align=left;verticalAlign=top;spacingLeft=4;spacingRight=4;overflow=hidden;rotatable=0;points=[[0,0.5],[1,0.5]];portConstraint=eastwest;labelBackgroundColor=none;fontColor=#1D3557;" parent="zkfFHV4jXpPFQw0GAbJ--17" vertex="1">
          <mxGeometry y="98" width="160" height="26" as="geometry" />
        </mxCell>
        <mxCell id="MQxrrS3ABcdaOcVpQEeN-4" value="BookLocator" style="swimlane;fontStyle=2;align=center;verticalAlign=top;childLayout=stackLayout;horizontal=1;startSize=26;horizontalStack=0;resizeParent=1;resizeLast=0;collapsible=1;marginBottom=0;rounded=0;shadow=0;strokeWidth=1;labelBackgroundColor=none;fillColor=#A8DADC;strokeColor=#457B9D;fontColor=#1D3557;" vertex="1" parent="WIyWlLk6GJQsqaUBKTNV-1">
          <mxGeometry x="590" y="430" width="110" height="220" as="geometry">
            <mxRectangle x="230" y="140" width="160" height="26" as="alternateBounds" />
          </mxGeometry>
        </mxCell>
        <mxCell id="MQxrrS3ABcdaOcVpQEeN-5" value="TITLE" style="text;align=left;verticalAlign=top;spacingLeft=4;spacingRight=4;overflow=hidden;rotatable=0;points=[[0,0.5],[1,0.5]];portConstraint=eastwest;labelBackgroundColor=none;fontColor=#1D3557;" vertex="1" parent="MQxrrS3ABcdaOcVpQEeN-4">
          <mxGeometry y="26" width="110" height="26" as="geometry" />
        </mxCell>
        <mxCell id="MQxrrS3ABcdaOcVpQEeN-6" value="URL" style="text;align=left;verticalAlign=top;spacingLeft=4;spacingRight=4;overflow=hidden;rotatable=0;points=[[0,0.5],[1,0.5]];portConstraint=eastwest;rounded=0;shadow=0;html=0;labelBackgroundColor=none;fontColor=#1D3557;" vertex="1" parent="MQxrrS3ABcdaOcVpQEeN-4">
          <mxGeometry y="52" width="110" height="26" as="geometry" />
        </mxCell>
        <mxCell id="MQxrrS3ABcdaOcVpQEeN-7" value="AUTHOR" style="text;align=left;verticalAlign=top;spacingLeft=4;spacingRight=4;overflow=hidden;rotatable=0;points=[[0,0.5],[1,0.5]];portConstraint=eastwest;rounded=0;shadow=0;html=0;labelBackgroundColor=none;fontColor=#1D3557;" vertex="1" parent="MQxrrS3ABcdaOcVpQEeN-4">
          <mxGeometry y="78" width="110" height="26" as="geometry" />
        </mxCell>
        <mxCell id="MQxrrS3ABcdaOcVpQEeN-8" value="DESCRIPTION" style="text;align=left;verticalAlign=top;spacingLeft=4;spacingRight=4;overflow=hidden;rotatable=0;points=[[0,0.5],[1,0.5]];portConstraint=eastwest;rounded=0;shadow=0;html=0;labelBackgroundColor=none;fontColor=#1D3557;" vertex="1" parent="MQxrrS3ABcdaOcVpQEeN-4">
          <mxGeometry y="104" width="110" height="26" as="geometry" />
        </mxCell>
        <mxCell id="MQxrrS3ABcdaOcVpQEeN-9" value="STATUS" style="text;align=left;verticalAlign=top;spacingLeft=4;spacingRight=4;overflow=hidden;rotatable=0;points=[[0,0.5],[1,0.5]];portConstraint=eastwest;rounded=0;shadow=0;html=0;labelBackgroundColor=none;fontColor=#1D3557;" vertex="1" parent="MQxrrS3ABcdaOcVpQEeN-4">
          <mxGeometry y="130" width="110" height="26" as="geometry" />
        </mxCell>
        <mxCell id="MQxrrS3ABcdaOcVpQEeN-10" value="PRICE" style="text;align=left;verticalAlign=top;spacingLeft=4;spacingRight=4;overflow=hidden;rotatable=0;points=[[0,0.5],[1,0.5]];portConstraint=eastwest;rounded=0;shadow=0;html=0;labelBackgroundColor=none;fontColor=#1D3557;" vertex="1" parent="MQxrrS3ABcdaOcVpQEeN-4">
          <mxGeometry y="156" width="110" height="26" as="geometry" />
        </mxCell>
        <mxCell id="MQxrrS3ABcdaOcVpQEeN-11" value="IMAGE" style="text;align=left;verticalAlign=top;spacingLeft=4;spacingRight=4;overflow=hidden;rotatable=0;points=[[0,0.5],[1,0.5]];portConstraint=eastwest;rounded=0;shadow=0;html=0;labelBackgroundColor=none;fontColor=#1D3557;" vertex="1" parent="MQxrrS3ABcdaOcVpQEeN-4">
          <mxGeometry y="182" width="110" height="26" as="geometry" />
        </mxCell>
        <mxCell id="MQxrrS3ABcdaOcVpQEeN-17" value="run.py" style="swimlane;whiteSpace=wrap;html=1;labelBackgroundColor=none;fillColor=#A8DADC;strokeColor=#457B9D;fontColor=#1D3557;" vertex="1" parent="WIyWlLk6GJQsqaUBKTNV-1">
          <mxGeometry x="50" y="50" width="200" height="300" as="geometry" />
        </mxCell>
        <mxCell id="MQxrrS3ABcdaOcVpQEeN-18" value="print_by_title()" style="text;align=left;verticalAlign=top;spacingLeft=4;spacingRight=4;overflow=hidden;rotatable=0;points=[[0,0.5],[1,0.5]];portConstraint=eastwest;rounded=0;shadow=0;html=0;spacingTop=0;strokeWidth=1;perimeterSpacing=0;labelBackgroundColor=none;fontColor=#1D3557;" vertex="1" parent="MQxrrS3ABcdaOcVpQEeN-17">
          <mxGeometry x="20" y="61.5" width="160" height="26" as="geometry" />
        </mxCell>
        <mxCell id="MQxrrS3ABcdaOcVpQEeN-19" value="print_by_author()" style="text;align=left;verticalAlign=top;spacingLeft=4;spacingRight=4;overflow=hidden;rotatable=0;points=[[0,0.5],[1,0.5]];portConstraint=eastwest;rounded=0;shadow=0;html=0;spacingTop=0;strokeWidth=1;perimeterSpacing=0;labelBackgroundColor=none;fontColor=#1D3557;" vertex="1" parent="MQxrrS3ABcdaOcVpQEeN-17">
          <mxGeometry x="20" y="87.5" width="160" height="26" as="geometry" />
        </mxCell>
        <mxCell id="MQxrrS3ABcdaOcVpQEeN-20" value="print_by_price()" style="text;align=left;verticalAlign=top;spacingLeft=4;spacingRight=4;overflow=hidden;rotatable=0;points=[[0,0.5],[1,0.5]];portConstraint=eastwest;rounded=0;shadow=0;html=0;spacingTop=0;strokeWidth=1;perimeterSpacing=0;labelBackgroundColor=none;fontColor=#1D3557;" vertex="1" parent="MQxrrS3ABcdaOcVpQEeN-17">
          <mxGeometry x="20" y="113.5" width="160" height="26" as="geometry" />
        </mxCell>
        <mxCell id="MQxrrS3ABcdaOcVpQEeN-21" value="search_book()" style="text;align=left;verticalAlign=top;spacingLeft=4;spacingRight=4;overflow=hidden;rotatable=0;points=[[0,0.5],[1,0.5]];portConstraint=eastwest;rounded=0;shadow=0;html=0;spacingTop=0;strokeWidth=1;perimeterSpacing=0;labelBackgroundColor=none;fontColor=#1D3557;" vertex="1" parent="MQxrrS3ABcdaOcVpQEeN-17">
          <mxGeometry x="20" y="139.5" width="160" height="26" as="geometry" />
        </mxCell>
        <mxCell id="MQxrrS3ABcdaOcVpQEeN-22" value="next()" style="text;align=left;verticalAlign=top;spacingLeft=4;spacingRight=4;overflow=hidden;rotatable=0;points=[[0,0.5],[1,0.5]];portConstraint=eastwest;rounded=0;shadow=0;html=0;spacingTop=0;strokeWidth=1;perimeterSpacing=0;labelBackgroundColor=none;fontColor=#1D3557;" vertex="1" parent="MQxrrS3ABcdaOcVpQEeN-17">
          <mxGeometry x="20" y="165.5" width="160" height="26" as="geometry" />
        </mxCell>
        <mxCell id="MQxrrS3ABcdaOcVpQEeN-23" value="_print_details()" style="text;align=left;verticalAlign=top;spacingLeft=4;spacingRight=4;overflow=hidden;rotatable=0;points=[[0,0.5],[1,0.5]];portConstraint=eastwest;rounded=0;shadow=0;html=0;spacingTop=0;strokeWidth=1;perimeterSpacing=0;labelBackgroundColor=none;fontColor=#1D3557;" vertex="1" parent="MQxrrS3ABcdaOcVpQEeN-17">
          <mxGeometry x="20" y="191.5" width="160" height="26" as="geometry" />
        </mxCell>
        <mxCell id="MQxrrS3ABcdaOcVpQEeN-24" value="main()" style="text;align=left;verticalAlign=top;spacingLeft=4;spacingRight=4;overflow=hidden;rotatable=0;points=[[0,0.5],[1,0.5]];portConstraint=eastwest;rounded=0;shadow=0;html=0;spacingTop=0;strokeWidth=1;perimeterSpacing=0;labelBackgroundColor=none;fontColor=#1D3557;" vertex="1" parent="MQxrrS3ABcdaOcVpQEeN-17">
          <mxGeometry x="20" y="217.5" width="160" height="26" as="geometry" />
        </mxCell>
        <mxCell id="MQxrrS3ABcdaOcVpQEeN-25" value="import books []" style="text;align=left;verticalAlign=top;spacingLeft=4;spacingRight=4;overflow=hidden;rotatable=0;points=[[0,0.5],[1,0.5]];portConstraint=eastwest;rounded=0;shadow=0;html=0;spacingTop=0;strokeWidth=1;perimeterSpacing=0;fontStyle=1;labelBackgroundColor=none;fontColor=#1D3557;" vertex="1" parent="MQxrrS3ABcdaOcVpQEeN-17">
          <mxGeometry x="20" y="30" width="160" height="26" as="geometry" />
        </mxCell>
        <mxCell id="MQxrrS3ABcdaOcVpQEeN-26" value="app.py" style="swimlane;whiteSpace=wrap;html=1;labelBackgroundColor=none;fillColor=#A8DADC;strokeColor=#457B9D;fontColor=#1D3557;" vertex="1" parent="WIyWlLk6GJQsqaUBKTNV-1">
          <mxGeometry x="330" y="120" width="280" height="190" as="geometry" />
        </mxCell>
        <mxCell id="MQxrrS3ABcdaOcVpQEeN-27" value="books []" style="text;align=left;verticalAlign=top;spacingLeft=4;spacingRight=4;overflow=hidden;rotatable=0;points=[[0,0.5],[1,0.5]];portConstraint=eastwest;rounded=0;shadow=0;html=0;spacingTop=0;strokeWidth=1;perimeterSpacing=0;labelBackgroundColor=none;fontColor=#1D3557;" vertex="1" parent="MQxrrS3ABcdaOcVpQEeN-26">
          <mxGeometry x="20" y="61.5" width="160" height="26" as="geometry" />
        </mxCell>
        <mxCell id="MQxrrS3ABcdaOcVpQEeN-28" value="page_count = PageScraper.page_count " style="text;align=left;verticalAlign=top;spacingLeft=4;spacingRight=4;overflow=hidden;rotatable=0;points=[[0,0.5],[1,0.5]];portConstraint=eastwest;rounded=0;shadow=0;html=0;spacingTop=0;strokeWidth=1;perimeterSpacing=0;labelBackgroundColor=none;fontColor=#1D3557;" vertex="1" parent="MQxrrS3ABcdaOcVpQEeN-26">
          <mxGeometry x="20" y="87.5" width="230" height="26" as="geometry" />
        </mxCell>
        <mxCell id="MQxrrS3ABcdaOcVpQEeN-29" value="page_scraping_loop:&#xa;        request page_content&#xa;        extend-books = PageScraper.books" style="text;align=left;verticalAlign=top;spacingLeft=4;spacingRight=4;overflow=hidden;rotatable=0;points=[[0,0.5],[1,0.5]];portConstraint=eastwest;rounded=0;shadow=0;html=0;spacingTop=0;strokeWidth=1;perimeterSpacing=0;labelBackgroundColor=none;fontColor=#1D3557;" vertex="1" parent="MQxrrS3ABcdaOcVpQEeN-26">
          <mxGeometry x="20" y="113.5" width="220" height="126.5" as="geometry" />
        </mxCell>
        <mxCell id="MQxrrS3ABcdaOcVpQEeN-35" value="logger" style="text;align=left;verticalAlign=top;spacingLeft=4;spacingRight=4;overflow=hidden;rotatable=0;points=[[0,0.5],[1,0.5]];portConstraint=eastwest;rounded=0;shadow=0;html=0;spacingTop=0;strokeWidth=1;perimeterSpacing=0;labelBackgroundColor=none;fontColor=#1D3557;" vertex="1" parent="MQxrrS3ABcdaOcVpQEeN-26">
          <mxGeometry x="20" y="35.5" width="160" height="26" as="geometry" />
        </mxCell>
        <mxCell id="MQxrrS3ABcdaOcVpQEeN-37" value="" style="endArrow=classic;html=1;rounded=0;labelBackgroundColor=none;strokeColor=#457B9D;fontColor=default;" edge="1" parent="WIyWlLk6GJQsqaUBKTNV-1" source="zkfFHV4jXpPFQw0GAbJ--1" target="MQxrrS3ABcdaOcVpQEeN-5">
          <mxGeometry width="50" height="50" relative="1" as="geometry">
            <mxPoint x="280" y="470" as="sourcePoint" />
            <mxPoint x="330" y="470" as="targetPoint" />
          </mxGeometry>
        </mxCell>
        <mxCell id="MQxrrS3ABcdaOcVpQEeN-38" value="" style="endArrow=classic;html=1;rounded=0;labelBackgroundColor=none;strokeColor=#457B9D;fontColor=default;" edge="1" parent="WIyWlLk6GJQsqaUBKTNV-1" source="zkfFHV4jXpPFQw0GAbJ--2" target="MQxrrS3ABcdaOcVpQEeN-6">
          <mxGeometry width="50" height="50" relative="1" as="geometry">
            <mxPoint x="550" y="479" as="sourcePoint" />
            <mxPoint x="600" y="479" as="targetPoint" />
          </mxGeometry>
        </mxCell>
        <mxCell id="MQxrrS3ABcdaOcVpQEeN-39" value="" style="endArrow=classic;html=1;rounded=0;labelBackgroundColor=none;strokeColor=#457B9D;fontColor=default;" edge="1" parent="WIyWlLk6GJQsqaUBKTNV-1" source="zkfFHV4jXpPFQw0GAbJ--3" target="MQxrrS3ABcdaOcVpQEeN-7">
          <mxGeometry width="50" height="50" relative="1" as="geometry">
            <mxPoint x="550" y="505" as="sourcePoint" />
            <mxPoint x="600" y="505" as="targetPoint" />
          </mxGeometry>
        </mxCell>
        <mxCell id="MQxrrS3ABcdaOcVpQEeN-40" value="PageLocator" style="swimlane;fontStyle=2;align=center;verticalAlign=top;childLayout=stackLayout;horizontal=1;startSize=26;horizontalStack=0;resizeParent=1;resizeLast=0;collapsible=1;marginBottom=0;rounded=0;shadow=0;strokeWidth=1;labelBackgroundColor=none;fillColor=#A8DADC;strokeColor=#457B9D;fontColor=#1D3557;" vertex="1" parent="WIyWlLk6GJQsqaUBKTNV-1">
          <mxGeometry x="160" y="650" width="160" height="80" as="geometry">
            <mxRectangle x="230" y="140" width="160" height="26" as="alternateBounds" />
          </mxGeometry>
        </mxCell>
        <mxCell id="MQxrrS3ABcdaOcVpQEeN-41" value="BOOKS" style="text;align=left;verticalAlign=top;spacingLeft=4;spacingRight=4;overflow=hidden;rotatable=0;points=[[0,0.5],[1,0.5]];portConstraint=eastwest;labelBackgroundColor=none;fontColor=#1D3557;" vertex="1" parent="MQxrrS3ABcdaOcVpQEeN-40">
          <mxGeometry y="26" width="160" height="26" as="geometry" />
        </mxCell>
        <mxCell id="MQxrrS3ABcdaOcVpQEeN-42" value="PAGE_COUNT" style="text;align=left;verticalAlign=top;spacingLeft=4;spacingRight=4;overflow=hidden;rotatable=0;points=[[0,0.5],[1,0.5]];portConstraint=eastwest;rounded=0;shadow=0;html=0;labelBackgroundColor=none;fontColor=#1D3557;" vertex="1" parent="MQxrrS3ABcdaOcVpQEeN-40">
          <mxGeometry y="52" width="160" height="26" as="geometry" />
        </mxCell>
        <mxCell id="MQxrrS3ABcdaOcVpQEeN-48" value="" style="endArrow=classic;html=1;rounded=0;labelBackgroundColor=none;strokeColor=#457B9D;fontColor=default;" edge="1" parent="WIyWlLk6GJQsqaUBKTNV-1" source="MQxrrS3ABcdaOcVpQEeN-0" target="MQxrrS3ABcdaOcVpQEeN-8">
          <mxGeometry width="50" height="50" relative="1" as="geometry">
            <mxPoint x="550" y="531" as="sourcePoint" />
            <mxPoint x="600" y="531" as="targetPoint" />
          </mxGeometry>
        </mxCell>
        <mxCell id="MQxrrS3ABcdaOcVpQEeN-49" value="" style="endArrow=classic;html=1;rounded=0;labelBackgroundColor=none;strokeColor=#457B9D;fontColor=default;" edge="1" parent="WIyWlLk6GJQsqaUBKTNV-1" source="MQxrrS3ABcdaOcVpQEeN-1" target="MQxrrS3ABcdaOcVpQEeN-9">
          <mxGeometry width="50" height="50" relative="1" as="geometry">
            <mxPoint x="560" y="541" as="sourcePoint" />
            <mxPoint x="610" y="541" as="targetPoint" />
          </mxGeometry>
        </mxCell>
        <mxCell id="MQxrrS3ABcdaOcVpQEeN-50" value="" style="endArrow=classic;html=1;rounded=0;labelBackgroundColor=none;strokeColor=#457B9D;fontColor=default;" edge="1" parent="WIyWlLk6GJQsqaUBKTNV-1" source="MQxrrS3ABcdaOcVpQEeN-2" target="MQxrrS3ABcdaOcVpQEeN-10">
          <mxGeometry width="50" height="50" relative="1" as="geometry">
            <mxPoint x="570" y="551" as="sourcePoint" />
            <mxPoint x="620" y="551" as="targetPoint" />
          </mxGeometry>
        </mxCell>
        <mxCell id="MQxrrS3ABcdaOcVpQEeN-51" value="" style="endArrow=classic;html=1;rounded=0;exitX=1;exitY=0.5;exitDx=0;exitDy=0;labelBackgroundColor=none;strokeColor=#457B9D;fontColor=default;" edge="1" parent="WIyWlLk6GJQsqaUBKTNV-1" source="MQxrrS3ABcdaOcVpQEeN-3" target="MQxrrS3ABcdaOcVpQEeN-11">
          <mxGeometry width="50" height="50" relative="1" as="geometry">
            <mxPoint x="580" y="561" as="sourcePoint" />
            <mxPoint x="630" y="561" as="targetPoint" />
          </mxGeometry>
        </mxCell>
        <mxCell id="MQxrrS3ABcdaOcVpQEeN-52" value="" style="endArrow=classic;html=1;rounded=0;entryX=1;entryY=0.5;entryDx=0;entryDy=0;exitX=1;exitY=0.5;exitDx=0;exitDy=0;labelBackgroundColor=none;strokeColor=#457B9D;fontColor=default;" edge="1" parent="WIyWlLk6GJQsqaUBKTNV-1" source="zkfFHV4jXpPFQw0GAbJ--24" target="MQxrrS3ABcdaOcVpQEeN-42">
          <mxGeometry width="50" height="50" relative="1" as="geometry">
            <mxPoint x="280" y="750" as="sourcePoint" />
            <mxPoint x="330" y="700" as="targetPoint" />
            <Array as="points">
              <mxPoint x="370" y="521" />
              <mxPoint x="370" y="715" />
            </Array>
          </mxGeometry>
        </mxCell>
        <mxCell id="MQxrrS3ABcdaOcVpQEeN-53" style="edgeStyle=orthogonalEdgeStyle;rounded=0;orthogonalLoop=1;jettySize=auto;html=1;labelBackgroundColor=none;strokeColor=#457B9D;fontColor=default;" edge="1" parent="WIyWlLk6GJQsqaUBKTNV-1" source="zkfFHV4jXpPFQw0GAbJ--19" target="MQxrrS3ABcdaOcVpQEeN-41">
          <mxGeometry relative="1" as="geometry" />
        </mxCell>
        <mxCell id="MQxrrS3ABcdaOcVpQEeN-55" value="" style="endArrow=classic;html=1;rounded=0;exitX=0.938;exitY=0.687;exitDx=0;exitDy=0;exitPerimeter=0;entryX=0;entryY=0.091;entryDx=0;entryDy=0;entryPerimeter=0;labelBackgroundColor=none;strokeColor=#457B9D;fontColor=default;" edge="1" parent="WIyWlLk6GJQsqaUBKTNV-1" source="zkfFHV4jXpPFQw0GAbJ--19" target="zkfFHV4jXpPFQw0GAbJ--0">
          <mxGeometry width="50" height="50" relative="1" as="geometry">
            <mxPoint x="280" y="750" as="sourcePoint" />
            <mxPoint x="330" y="700" as="targetPoint" />
          </mxGeometry>
        </mxCell>
        <mxCell id="MQxrrS3ABcdaOcVpQEeN-56" value="" style="endArrow=classic;html=1;rounded=0;entryX=0.57;entryY=-0.034;entryDx=0;entryDy=0;exitX=1.001;exitY=0.335;exitDx=0;exitDy=0;exitPerimeter=0;entryPerimeter=0;labelBackgroundColor=none;strokeColor=#457B9D;fontColor=default;" edge="1" parent="WIyWlLk6GJQsqaUBKTNV-1" source="MQxrrS3ABcdaOcVpQEeN-29" target="zkfFHV4jXpPFQw0GAbJ--17">
          <mxGeometry width="50" height="50" relative="1" as="geometry">
            <mxPoint x="280" y="350" as="sourcePoint" />
            <mxPoint x="330" y="300" as="targetPoint" />
            <Array as="points">
              <mxPoint x="570" y="360" />
              <mxPoint x="280" y="360" />
            </Array>
          </mxGeometry>
        </mxCell>
        <mxCell id="MQxrrS3ABcdaOcVpQEeN-58" value="" style="endArrow=classic;html=1;rounded=0;exitX=1;exitY=0.5;exitDx=0;exitDy=0;entryX=-0.005;entryY=0.058;entryDx=0;entryDy=0;entryPerimeter=0;labelBackgroundColor=none;strokeColor=#457B9D;fontColor=default;" edge="1" parent="WIyWlLk6GJQsqaUBKTNV-1" source="MQxrrS3ABcdaOcVpQEeN-25" target="MQxrrS3ABcdaOcVpQEeN-26">
          <mxGeometry width="50" height="50" relative="1" as="geometry">
            <mxPoint x="280" y="350" as="sourcePoint" />
            <mxPoint x="330" y="300" as="targetPoint" />
          </mxGeometry>
        </mxCell>
      </root>
    </mxGraphModel>
  </diagram>
</mxfile>
